<?xml version="1.0" standalone="no"?>
<!DOCTYPE svg PUBLIC "-//W3C//DTD SVG 20010904//EN"
 "http://www.w3.org/TR/2001/REC-SVG-20010904/DTD/svg10.dtd">
<svg version="1.0" xmlns="http://www.w3.org/2000/svg"
 width="512.000000pt" height="512.000000pt" viewBox="0 0 512.000000 512.000000"
 preserveAspectRatio="xMidYMid meet">
<metadata>
Created by potrace 1.16, written by Peter Selinger 2001-2019
</metadata>
<g transform="translate(0.000000,512.000000) scale(0.100000,-0.100000)"
fill="#000000" stroke="none">
<path d="M1657 4900 c-53 -10 -88 -38 -116 -94 l-24 -48 17 -106 c35 -213 88
-376 165 -503 l38 -63 -33 -57 c-39 -70 -78 -166 -102 -251 -24 -90 -24 -386
0 -476 60 -217 175 -395 341 -529 89 -73 91 -70 -50 -105 -111 -27 -293 -29
-398 -4 -330 79 -587 306 -666 589 -19 68 -23 104 -22 207 1 69 0 133 -3 143
-8 26 -64 48 -100 38 -64 -16 -239 -320 -319 -551 -91 -264 -131 -492 -147
-845 -23 -496 28 -1061 103 -1141 29 -31 79 -32 112 -1 13 12 33 53 45 93 26
83 65 142 124 184 55 40 107 53 198 48 145 -6 255 -90 393 -300 109 -165 120
-166 245 -39 91 93 156 134 261 165 92 27 92 27 124 -67 83 -241 280 -552 520
-820 99 -110 125 -127 197 -127 71 0 97 16 191 121 241 267 443 584 526 826
32 94 32 94 124 67 105 -31 170 -72 261 -165 125 -127 136 -126 245 39 137
208 249 294 393 300 91 5 143 -8 198 -48 59 -42 98 -101 124 -184 12 -40 32
-81 45 -94 33 -30 83 -29 112 2 75 80 126 637 103 1136 -16 353 -56 586 -147
850 -79 231 -255 535 -319 551 -36 10 -92 -12 -100 -38 -3 -10 -4 -74 -3 -143
1 -103 -3 -139 -21 -205 -82 -288 -334 -511 -667 -591 -105 -25 -287 -23 -398
4 -141 35 -140 33 -54 101 161 128 270 291 334 499 25 80 27 101 27 267 1 158
-2 189 -22 258 -27 95 -62 179 -100 244 l-29 49 38 63 c77 127 130 289 165
503 l17 106 -24 48 c-29 57 -62 83 -120 95 -104 20 -302 1 -422 -40 -149 -52
-281 -155 -351 -275 l-39 -66 -86 0 -86 0 -40 66 c-74 123 -204 224 -352 275
-119 41 -322 60 -426 39z m703 -1501 c30 -12 85 -26 123 -33 l67 -11 -65 -47
c-39 -29 -85 -75 -116 -118 l-51 -70 -28 20 c-41 29 -77 75 -90 115 -20 60 15
128 80 154 14 5 25 10 25 10 0 1 25 -8 55 -20z m510 -8 c14 -9 33 -34 44 -55
16 -32 17 -44 7 -77 -13 -42 -48 -88 -91 -119 l-28 -20 -51 70 c-31 43 -77 89
-116 118 l-65 47 74 12 c41 7 93 22 117 32 47 21 70 19 109 -8z"/>
</g>
</svg>
