<?xml version="1.0" standalone="no"?>
<!DOCTYPE svg PUBLIC "-//W3C//DTD SVG 20010904//EN"
 "http://www.w3.org/TR/2001/REC-SVG-20010904/DTD/svg10.dtd">
<svg version="1.0" xmlns="http://www.w3.org/2000/svg"
 width="640.000000pt" height="392.000000pt" viewBox="0 0 640.000000 392.000000"
 preserveAspectRatio="xMidYMid meet">
<metadata>
Created by potrace 1.16, written by Peter Selinger 2001-2019
</metadata>
<g transform="translate(0.000000,392.000000) scale(0.100000,-0.100000)"
fill="#000000" stroke="none">
<path d="M0 1960 l0 -1960 1637 2 c1386 3 1637 5 1641 17 3 9 0 11 -8 6 -9 -6
-10 -1 -5 16 4 13 14 28 22 32 18 11 7 26 -32 43 -31 13 -32 15 -22 39 7 14
18 25 25 25 6 0 12 4 12 8 0 4 16 6 35 4 26 -3 35 -1 33 9 -3 13 2 16 50 18
30 1 60 17 51 26 -3 3 -28 7 -55 9 -27 3 -62 9 -77 15 -16 6 -41 11 -56 11
-35 0 -82 35 -74 55 3 8 0 15 -6 15 -6 0 -11 -4 -11 -10 0 -5 -4 -10 -10 -10
-5 0 -10 4 -10 9 0 10 127 51 160 51 12 0 28 7 36 15 9 8 11 15 5 15 -6 0 -11
5 -11 11 0 21 -33 38 -53 27 -13 -7 -23 -6 -30 1 -6 6 -27 11 -47 11 -20 0
-45 7 -56 15 -10 8 -16 15 -12 15 4 0 3 11 -2 24 -10 27 -13 26 125 42 51 6
56 8 32 15 -15 4 -47 7 -72 7 -25 0 -58 3 -75 7 l-30 7 6 91 c3 51 7 104 7
120 0 20 6 27 19 27 13 0 17 -4 12 -12 -4 -7 -4 -10 1 -6 7 7 62 -18 75 -33 7
-9 47 -29 57 -29 4 0 -12 14 -37 30 -25 17 -44 34 -43 39 1 5 -11 14 -27 20
-46 16 -36 27 23 26 29 0 64 2 77 5 14 4 -12 7 -58 8 -45 0 -87 4 -93 7 -5 4
-32 7 -60 7 -27 -1 -49 2 -49 6 0 4 -17 7 -37 7 -50 0 -159 30 -156 44 2 5 -4
8 -12 5 -17 -7 -100 43 -130 78 -26 30 -26 90 0 118 34 38 98 76 150 90 28 7
69 19 93 26 23 8 59 15 80 15 32 1 33 2 11 8 -35 8 -69 38 -106 91 -18 25 -47
62 -67 82 -23 25 -33 44 -29 56 2 11 -2 33 -11 50 -15 28 -15 31 2 35 9 3 3 5
-14 6 -39 1 -114 54 -114 80 0 15 13 23 58 36 31 9 62 18 67 20 13 6 -283 -10
-395 -22 -36 -3 -71 -5 -77 -4 -7 1 -13 -3 -13 -9 0 -7 -8 -9 -21 -5 -13 4
-25 2 -29 -5 -4 -6 -27 -14 -51 -17 -24 -2 -51 -7 -59 -10 -8 -4 -18 -7 -22
-7 -3 -1 -9 -4 -13 -8 -4 -3 -18 -4 -31 -2 -14 3 -24 0 -24 -7 0 -6 -7 -9 -15
-5 -8 3 -15 2 -15 -2 0 -4 -12 -8 -26 -9 -15 0 -29 -5 -33 -10 -10 -15 -104
-9 -129 8 -32 23 -119 1 -108 -28 3 -7 -1 -19 -9 -27 -11 -11 -12 -16 -2 -20
9 -5 9 -7 -1 -12 -6 -3 -9 -10 -6 -16 5 -7 -6 -9 -32 -4 -89 15 -93 17 -87 33
4 9 2 14 -3 11 -5 -4 -17 0 -27 7 -13 9 -15 15 -6 20 6 4 15 1 20 -6 6 -10 9
-10 9 -2 0 19 30 3 31 -16 0 -9 7 0 14 19 8 20 14 27 14 17 1 -11 6 -15 12
-11 6 3 15 0 20 -7 6 -11 11 -11 21 -1 9 9 9 12 -3 12 -7 0 2 8 21 18 25 12
30 18 17 20 -9 2 -17 8 -17 13 0 5 -5 9 -11 9 -8 0 -8 -4 0 -14 9 -11 7 -15
-10 -19 -11 -3 -18 -3 -15 0 3 4 1 13 -6 20 -19 23 10 34 67 27 28 -4 60 -7
72 -8 11 -1 19 -4 17 -8 -7 -10 26 2 51 19 11 7 14 13 8 13 -7 0 -15 -4 -18
-10 -3 -5 -13 -10 -21 -10 -9 0 -12 5 -8 12 5 7 2 9 -8 5 -19 -7 -50 24 -40
39 15 23 41 23 64 -1 24 -26 48 -33 48 -14 0 5 -4 8 -9 4 -5 -3 -12 -1 -16 5
-4 6 5 10 19 10 17 0 26 5 26 16 0 14 -2 15 -17 3 -11 -10 -14 -10 -9 -1 4 6
3 12 -3 12 -12 0 -3 30 13 45 6 6 22 11 36 13 13 1 29 8 35 14 7 8 6 9 -2 4
-7 -4 -13 -3 -13 2 0 12 26 23 60 28 14 2 32 12 42 24 9 11 22 20 30 20 10 0
9 3 -2 10 -13 8 -11 11 8 16 12 4 22 12 22 19 0 7 7 16 16 19 10 4 14 12 10
23 -4 9 -1 20 6 25 10 6 10 8 -1 8 -14 0 -82 -38 -92 -52 -3 -4 -17 -9 -31
-10 -16 -1 -24 -7 -21 -15 3 -7 -2 -13 -10 -13 -8 0 -17 -5 -19 -12 -2 -6 -19
-11 -38 -10 -26 1 -31 -2 -20 -10 12 -8 12 -9 -2 -4 -11 3 -22 -2 -28 -14 -14
-27 -131 -102 -148 -95 -8 3 -17 5 -21 5 -4 0 -7 9 -7 20 0 24 5 25 20 6 9
-13 13 -13 26 2 13 14 12 15 -3 9 -15 -6 -17 -3 -12 16 3 12 3 17 -2 11 -5 -7
-14 -4 -25 8 -17 17 -16 18 3 28 17 10 24 7 40 -12 19 -21 21 -21 30 -5 13 22
30 22 22 0 -5 -15 -3 -14 10 2 9 11 17 28 17 37 0 18 45 36 57 24 4 -3 -1 -6
-10 -6 -9 0 -17 -5 -17 -11 0 -7 9 -9 23 -5 12 3 34 6 50 6 15 0 27 4 27 10 0
5 -13 7 -30 4 -35 -7 -40 3 -9 15 14 5 -1 7 -45 7 -49 -1 -69 3 -76 14 -9 13
-10 13 -10 0 0 -12 -2 -13 -9 -1 -7 11 -11 10 -20 -5 -10 -18 -10 -18 -11 1
-1 19 -2 19 -9 1 -5 -14 -10 -16 -15 -8 -10 17 2 32 27 32 20 1 21 2 5 14 -26
19 -22 27 7 14 14 -6 25 -14 25 -18 0 -3 28 -12 63 -19 66 -13 174 -12 154 1
-9 6 -6 13 9 26 11 9 19 27 18 40 -1 15 4 22 17 22 11 0 20 10 24 29 6 30 -8
71 -25 71 -6 0 -10 6 -10 14 0 25 90 41 98 17 3 -8 0 -11 -7 -7 -6 4 -11 2
-11 -5 0 -7 -7 -20 -15 -29 -19 -21 -10 -56 10 -40 9 7 16 6 25 -5 16 -19 30
-19 30 0 0 8 4 15 8 15 5 0 17 8 28 18 10 9 31 23 46 29 21 10 27 19 26 39 -2
14 -10 30 -20 35 -21 12 -24 49 -4 49 8 0 17 6 19 13 4 9 8 9 15 -2 8 -11 10
-11 15 0 4 10 6 10 6 2 1 -9 8 -10 25 -3 14 5 26 5 28 0 2 -4 21 0 42 11 22
10 42 17 44 14 3 -3 10 -1 16 4 6 5 36 14 66 21 30 7 61 17 68 23 7 5 27 17
45 26 30 15 46 55 22 56 -5 1 -20 6 -32 13 -12 6 -28 9 -36 6 -8 -3 -17 2 -20
10 -4 9 -13 13 -20 10 -9 -3 -16 3 -20 15 -5 20 -29 27 -80 23 -9 -1 -45 5
-79 13 -45 10 -67 11 -81 3 -11 -5 -42 -8 -68 -6 -38 4 -54 12 -79 38 -16 17
-30 36 -30 40 0 10 -94 50 -117 50 -11 0 -28 -6 -38 -14 -18 -13 -17 -14 7
-30 14 -9 30 -16 34 -14 5 1 27 -15 49 -35 30 -28 36 -40 27 -46 -8 -5 -13
-12 -13 -17 0 -5 -4 -26 -10 -47 -10 -37 -12 -38 -42 -31 -18 4 -38 7 -44 7
-7 0 -13 3 -13 7 0 7 -75 33 -100 34 -8 1 -15 8 -15 16 -1 8 -6 14 -12 13 -7
-2 -24 4 -39 11 -14 8 -33 12 -41 9 -8 -3 -13 0 -11 7 2 7 -3 15 -9 17 -7 3
-13 -1 -13 -7 0 -10 -4 -10 -15 0 -12 10 -15 10 -15 0 0 -10 -3 -10 -15 0 -12
10 -15 10 -15 -3 0 -9 8 -18 18 -20 10 -3 5 -6 -13 -7 l-30 -2 35 -10 c19 -5
45 -10 58 -10 12 0 22 -4 22 -9 0 -5 10 -9 23 -10 16 0 11 -5 -21 -20 -24 -10
-48 -16 -53 -13 -5 3 -9 0 -9 -6 0 -8 -9 -10 -26 -6 -17 5 -23 3 -19 -4 3 -6
-4 -11 -17 -11 -153 -9 -280 -28 -271 -42 4 -6 0 -8 -9 -4 -9 3 -15 0 -14 -6
0 -7 -3 -12 -9 -12 -5 0 -9 3 -8 6 1 3 -10 4 -24 1 -18 -3 -24 -1 -19 7 4 6 1
11 -9 11 -8 0 -18 -6 -21 -14 -8 -20 -44 -7 -44 16 0 12 5 18 13 15 6 -2 11
-10 9 -16 -1 -6 2 -11 8 -11 5 0 10 4 10 9 0 5 12 14 28 19 24 9 25 10 5 11
-16 1 -23 7 -23 21 0 11 -6 20 -12 20 -14 0 -16 48 -4 68 4 7 3 12 -3 12 -6 0
-8 7 -5 15 4 9 -1 18 -12 22 -11 3 -22 11 -25 15 -9 14 -59 -2 -59 -19 0 -9
-6 -13 -14 -10 -9 4 -16 -3 -20 -15 -4 -18 -7 -19 -20 -9 -9 7 -23 11 -31 7
-8 -3 -15 -1 -15 4 0 12 37 23 52 14 8 -5 9 -2 5 10 -4 10 -2 27 5 39 7 12 12
28 13 35 0 7 6 16 14 21 8 6 -8 12 -50 20 -35 6 -67 7 -73 2 -6 -5 -26 -12
-43 -16 -18 -3 -33 -11 -33 -17 0 -7 -5 -6 -14 1 -11 10 -17 8 -25 -6 -10 -17
-10 -17 -11 0 0 9 -4 17 -9 17 -5 0 -12 -8 -14 -17 -4 -17 -5 -17 -6 0 0 9 -5
17 -9 17 -5 0 -19 9 -32 20 -24 21 -45 17 -36 -6 3 -8 1 -14 -4 -14 -6 0 -10
7 -10 15 0 18 -20 20 -20 3 -1 -8 -6 -6 -14 5 -14 18 -32 24 -21 7 3 -5 2 -10
-4 -10 -5 0 -13 5 -16 10 -4 6 -11 8 -16 5 -5 -4 -15 -3 -21 1 -7 5 -26 7 -43
6 -41 -3 -61 10 -40 28 12 10 15 10 15 0 0 -7 11 -1 25 13 20 19 35 25 60 23
25 -2 35 1 35 11 0 7 12 18 28 24 36 15 103 19 96 7 -4 -6 2 -7 15 -3 14 4 21
2 21 -7 0 -8 4 -6 11 5 5 9 8 21 4 26 -3 5 0 13 6 16 6 4 8 17 5 30 -4 14 0
28 9 35 8 7 15 18 15 24 0 13 71 46 98 46 10 0 22 3 26 7 4 5 29 13 54 20 26
6 64 16 85 21 21 6 47 18 56 27 10 8 42 19 70 24 44 7 51 6 49 -8 -2 -10 5
-17 20 -19 22 -3 30 -26 12 -37 -5 -3 -10 -1 -10 4 0 6 -6 11 -12 11 -7 -1 -2
-10 11 -21 15 -12 21 -23 15 -27 -6 -4 -10 -23 -10 -42 1 -28 6 -35 26 -41 14
-4 20 -7 13 -8 -6 -1 -9 -10 -5 -23 4 -17 2 -20 -12 -15 -9 4 -15 3 -12 -2 3
-5 -1 -12 -10 -15 -14 -5 -12 -10 11 -28 20 -15 23 -23 14 -29 -8 -5 -1 -7 19
-7 17 1 29 5 26 10 -5 7 1 9 39 12 13 1 27 16 27 29 0 5 -4 6 -8 3 -11 -7 -32
29 -24 41 4 5 14 13 22 16 11 4 10 7 -7 12 -28 9 -28 14 -5 32 13 10 13 13 2
11 -9 -2 -14 3 -12 15 2 10 -3 17 -13 17 -8 0 -15 4 -15 8 0 7 33 8 50 2 6 -3
21 -6 34 -8 5 -1 3 -9 -4 -17 -16 -20 -5 -19 26 1 13 9 44 18 67 20 38 2 40 2
17 -9 -14 -6 -28 -16 -31 -21 -4 -5 -14 -6 -24 -3 -9 4 -13 3 -10 -2 3 -5 0
-11 -7 -14 -7 -2 -5 -3 4 -2 10 2 17 0 16 -4 -1 -3 1 -16 6 -29 6 -17 13 -21
31 -16 17 4 24 1 27 -13 3 -13 5 -11 10 9 3 15 2 26 -1 23 -4 -2 -12 4 -18 14
-10 16 -7 17 33 11 24 -4 47 -10 50 -13 4 -3 15 -2 25 4 15 7 17 6 13 -5 -4
-9 2 -16 18 -19 17 -3 14 -5 -12 -6 -19 -2 -29 -5 -22 -8 6 -2 9 -10 5 -15 -4
-7 2 -9 17 -5 15 4 33 -1 52 -14 26 -19 33 -18 29 4 -1 5 8 6 19 2 13 -4 22
-1 26 9 3 9 14 16 24 16 10 0 25 7 34 15 8 8 22 15 30 15 9 0 16 5 16 11 0 8
17 10 58 4 31 -4 79 -9 107 -11 27 -2 74 -9 105 -15 87 -18 219 -16 259 4 19
9 42 17 51 17 31 0 32 28 2 32 -15 2 -27 8 -27 13 0 23 -18 34 -61 41 -25 3
-51 12 -57 19 -7 6 -36 21 -66 32 -48 18 -51 21 -37 35 14 14 13 16 -13 20
-16 2 -37 -2 -47 -9 -10 -7 -24 -11 -31 -9 -7 3 -13 2 -13 -3 0 -11 -91 -41
-124 -41 -14 0 -26 5 -26 10 0 6 9 10 20 10 26 0 26 17 0 25 -29 9 -25 21 16
42 58 30 46 41 -76 64 -63 12 -77 19 -61 28 6 4 3 11 -9 19 -17 10 -20 10 -20
-3 0 -17 -16 -20 -25 -5 -3 6 0 10 7 10 7 0 3 7 -9 15 -12 8 -29 12 -39 8 -14
-5 -16 -2 -10 21 9 37 0 63 -24 69 -14 4 -20 0 -20 -11 0 -14 -2 -15 -10 -2
-7 11 -14 12 -32 3 -38 -19 -58 -23 -58 -13 0 6 -9 10 -20 10 -11 0 -20 7 -20
15 0 8 -15 21 -34 30 -21 10 -37 26 -40 41 -6 23 -10 24 -64 20 -81 -7 -122
-21 -168 -59 -73 -61 -122 -89 -208 -117 -47 -16 -100 -35 -118 -43 -98 -43
-216 -72 -468 -116 -178 -31 -189 -33 -290 -34 -137 -2 -236 6 -249 20 -9 10
-8 13 3 13 8 0 19 6 23 14 11 19 100 48 248 81 175 39 363 83 420 100 200 57
309 92 379 122 45 19 97 41 116 49 19 8 44 20 55 27 53 30 140 69 217 97 81
29 88 30 116 16 16 -8 32 -12 36 -9 3 4 6 -1 6 -9 0 -9 10 -19 23 -22 21 -7
21 -7 2 -16 -14 -6 -15 -9 -5 -10 8 -1 29 -3 46 -5 26 -4 37 1 62 30 32 38 42
41 72 23 15 -10 22 -9 38 5 14 13 21 14 31 4 11 -9 14 -9 18 1 3 6 11 12 18
12 7 0 16 -6 18 -12 3 -8 6 -6 6 5 1 10 9 17 21 17 11 0 20 4 20 10 0 5 7 7
16 3 11 -4 15 -1 12 12 -2 13 5 18 35 21 35 3 49 -7 27 -21 -13 -8 -12 -16 4
-38 11 -15 22 -17 51 -11 20 3 32 10 26 13 -7 5 -1 17 18 35 l28 27 7 -25 c7
-27 26 -36 26 -12 0 10 9 13 30 10 40 -7 38 2 -5 20 -33 14 -52 45 -20 32 9
-3 15 0 15 10 0 12 -7 14 -32 9 -25 -5 -29 -4 -18 5 23 16 -13 33 -74 33 -40
0 -52 -4 -54 -17 -2 -9 -17 -19 -33 -23 -16 -3 -26 -9 -23 -14 3 -5 0 -9 -7
-9 -7 0 -9 10 -6 27 l5 28 -19 -24 c-10 -13 -19 -18 -19 -12 0 6 -9 11 -20 11
-13 0 -20 7 -20 20 0 16 -6 19 -37 16 -21 -2 -54 -13 -73 -24 -38 -24 -55 -28
-45 -12 3 6 -3 10 -14 10 -12 0 -22 6 -23 13 -1 13 -4 28 -8 40 -1 4 -3 11 -4
16 0 5 -4 13 -9 17 -11 12 -8 54 5 54 6 0 9 2 7 5 -3 2 -14 2 -26 -1 -15 -4
-20 -12 -17 -27 3 -16 0 -15 -8 6 l-12 27 -873 0 -873 0 0 -1960z m1120 1768
l-25 -11 25 -5 c14 -2 28 -9 31 -14 4 -5 18 -11 33 -11 14 -1 26 -5 26 -9 0
-4 17 -7 37 -6 20 1 39 -4 41 -10 2 -6 10 -8 18 -5 10 4 17 -2 21 -16 3 -11 9
-18 14 -15 5 3 6 -1 3 -9 -3 -8 -37 -31 -76 -51 -55 -28 -74 -34 -84 -25 -8 7
-27 9 -47 5 -38 -8 -108 21 -106 44 3 35 -2 49 -19 54 -29 10 -20 48 18 74 21
14 47 22 74 21 39 0 40 -1 16 -11z m870 -1537 c15 -29 13 -37 -15 -49 -13 -6
-27 -23 -31 -37 -7 -30 -10 -30 -49 -7 -37 23 -75 33 -75 21 0 -5 -7 -9 -15
-9 -8 0 -15 -7 -15 -16 0 -14 -2 -14 -16 1 -15 14 -17 14 -28 0 -9 -13 -13
-11 -27 14 -9 16 -14 33 -10 39 9 16 63 2 57 -14 -3 -8 -1 -14 4 -14 6 0 10
10 10 21 0 17 5 20 25 17 14 -3 28 -1 31 4 4 5 16 7 29 4 16 -4 25 -1 29 10 4
9 13 14 21 10 8 -3 15 -1 15 4 0 7 16 15 42 19 4 0 12 -8 18 -18z m636 -506
l25 -26 -23 -20 -23 -20 23 6 c35 10 26 -11 -10 -23 -33 -10 -33 -10 17 -13
28 -1 56 -2 63 -2 27 2 39 -32 86 -234 18 -79 15 -79 -98 -18 -46 25 -91 45
-100 45 -9 0 -16 4 -16 8 0 5 -22 19 -50 32 -53 25 -61 36 -32 43 9 3 -1 3
-23 1 -29 -4 -49 1 -72 15 -36 23 -36 51 1 51 11 1 32 7 46 15 14 8 37 14 51
15 14 0 34 6 44 14 16 11 11 12 -34 2 -50 -10 -54 -9 -72 12 -18 23 -18 23
-91 8 -40 -9 -98 -23 -128 -32 -30 -8 -72 -20 -93 -26 -21 -6 -95 -39 -164
-74 l-125 -63 -63 16 c-61 15 -62 16 -46 35 17 21 113 68 140 68 9 0 39 11 66
25 28 13 58 25 67 25 9 0 19 4 22 9 3 4 34 14 68 21 35 7 68 16 73 20 18 13
269 67 320 69 17 1 44 5 60 10 49 15 64 12 91 -14z m-286 -220 c30 -22 31 -25
14 -31 -10 -4 -57 -25 -104 -47 -86 -40 -119 -45 -202 -31 -42 6 -47 14 -19
29 10 6 34 19 52 29 41 24 176 73 205 75 11 0 35 -10 54 -24z m96 -44 c5 -5
45 -24 89 -41 44 -18 98 -40 120 -50 22 -9 57 -23 78 -30 26 -8 37 -17 33 -26
-3 -8 1 -14 9 -14 27 0 15 -15 -29 -35 l-43 -21 -179 41 c-99 23 -186 45 -194
48 -22 10 197 -2 245 -13 22 -5 58 -9 80 -9 82 1 0 17 -195 39 -242 27 -238
26 -206 51 28 22 86 48 131 59 43 11 50 11 61 1z m-656 -53 c0 -4 -4 -8 -8 -8
-15 0 -108 -95 -135 -137 -19 -31 -32 -41 -44 -37 -17 5 -17 5 -1 -6 14 -9 15
-15 6 -35 -6 -13 -14 -22 -18 -20 -5 3 -20 -1 -34 -9 -25 -13 -25 -14 -6 -19
11 -3 18 -1 14 4 -3 5 4 9 15 9 12 0 21 -4 21 -10 0 -5 -4 -10 -10 -10 -5 0
-7 -6 -4 -14 3 -8 1 -23 -5 -33 -6 -10 -11 -12 -11 -5 0 10 -4 10 -20 0 -14
-9 -23 -10 -28 -3 -4 6 -17 11 -30 13 -20 2 -22 -1 -17 -19 6 -18 4 -20 -17
-14 -18 5 -20 4 -8 -4 8 -6 27 -11 42 -11 20 0 26 -4 22 -15 -4 -8 -1 -15 6
-15 6 0 8 5 5 10 -3 6 1 10 9 10 9 0 16 5 16 11 0 5 -3 8 -8 5 -4 -2 -18 2
-32 9 -24 13 -23 14 20 10 24 -2 49 0 55 5 7 6 11 1 13 -16 1 -13 8 -39 16
-58 l14 -34 -40 -6 c-22 -4 -63 -4 -91 -1 -37 4 -46 3 -32 -4 17 -8 14 -10
-17 -10 -22 -1 -38 4 -38 10 0 6 7 8 16 5 8 -3 12 -2 9 4 -3 6 -13 10 -22 10
-15 0 -14 2 0 18 23 25 21 32 -8 32 -16 0 -25 6 -25 15 0 10 10 15 27 15 26 0
26 0 7 23 -10 12 -12 16 -4 10 8 -7 21 -13 30 -13 13 0 13 1 0 10 -13 8 -12
10 3 10 9 0 17 5 17 11 0 7 -10 9 -24 7 -15 -3 -27 2 -35 14 -9 14 -8 18 1 18
10 0 10 2 -1 9 -17 11 4 25 22 15 9 -6 8 -4 -1 8 -12 15 -9 16 25 13 32 -3 35
-2 18 8 -11 6 -24 12 -29 12 -5 0 -11 6 -14 13 -2 7 2 11 8 10 7 -2 15 3 18
11 3 8 0 11 -7 7 -6 -4 -1 8 12 27 12 19 24 30 26 25 2 -5 9 1 15 14 7 14 21
23 36 24 42 2 44 3 25 24 -10 11 -13 20 -7 20 7 0 21 9 31 19 43 43 67 49 142
32 38 -8 69 -18 69 -23z m235 -47 c65 -18 67 -22 29 -66 -19 -22 -40 -53 -47
-68 l-12 -28 -90 5 c-49 3 -93 5 -98 5 -4 1 0 15 9 32 12 25 21 30 40 26 13
-2 24 0 24 4 0 5 -7 9 -15 9 -8 0 -15 5 -15 10 0 6 5 10 10 10 6 0 20 11 32
25 12 14 32 25 44 25 17 0 22 4 17 16 -5 12 -1 15 13 11 10 -3 37 -11 59 -16z
m290 -97 c72 -24 138 -49 147 -54 9 -5 30 -12 47 -15 16 -3 40 -9 53 -14 l23
-10 -25 0 c-14 0 -104 4 -201 9 -97 5 -210 10 -251 11 l-75 2 14 28 c8 16 18
29 22 29 4 0 14 11 21 25 7 14 19 25 27 25 7 0 13 5 13 11 0 15 26 8 185 -47z
m-347 -89 c20 -7 13 -25 -10 -25 l-22 0 23 -21 c14 -13 21 -29 18 -40 -3 -11
-1 -19 3 -19 5 0 7 -8 6 -17 -2 -10 2 -21 7 -25 11 -6 -50 -22 -88 -22 -11 0
-22 -3 -25 -7 -3 -4 -22 -10 -43 -14 -30 -6 -37 -4 -37 9 0 10 6 13 15 10 8
-4 15 -1 15 5 0 6 -11 11 -25 11 -19 0 -25 5 -25 21 0 13 4 18 13 13 6 -4 5 1
-4 12 -14 17 -16 32 -10 103 1 8 8 11 21 8 12 -3 17 -1 14 5 -6 9 121 3 154
-7z m367 -12 c99 -4 196 -7 215 -6 31 1 33 0 11 -8 -13 -5 -78 -21 -145 -34
-66 -14 -148 -32 -181 -40 -33 -8 -71 -16 -85 -19 -26 -4 -73 -15 -102 -22
-12 -4 -18 4 -24 28 -4 18 -7 38 -5 43 2 6 3 25 3 43 l0 34 67 -6 c36 -3 147
-9 246 -13z m305 -43 c0 -16 5 -30 12 -30 6 0 9 -3 6 -6 -3 -3 -30 -7 -60 -10
-29 -2 -83 -9 -120 -16 -62 -10 -70 -9 -88 7 -20 18 -21 18 -14 -1 4 -10 4
-16 -1 -12 -4 4 -15 3 -25 -2 -9 -5 -53 -12 -96 -15 -44 -4 -101 -10 -127 -16
-91 -17 -82 -7 13 15 52 12 114 21 138 20 25 0 42 4 42 10 0 6 37 20 83 30 45
11 114 27 152 37 39 9 73 18 78 18 4 1 7 -12 7 -29z m245 -165 c18 -6 17 -9
-14 -33 -18 -15 -43 -36 -55 -47 -33 -30 -79 -67 -110 -90 -15 -11 -42 -32
-59 -47 -18 -15 -38 -28 -44 -28 -19 0 -16 24 5 43 9 9 26 33 37 54 11 21 24
43 28 48 4 6 26 35 48 65 22 30 45 54 51 52 6 -2 8 4 5 11 -4 12 4 11 41 -4
26 -10 56 -21 67 -24z m-210 29 c-11 -3 -29 -9 -40 -13 -32 -14 -317 -109
-359 -120 -33 -9 -43 -7 -75 13 -20 13 -56 42 -81 64 l-45 41 55 1 c60 0 324
12 327 14 1 1 55 2 120 3 65 1 109 -1 98 -3z m-597 -63 c29 -28 65 -58 82 -68
16 -9 30 -20 30 -23 0 -10 -116 -50 -146 -50 -38 0 -80 29 -172 117 -27 26
-41 46 -37 54 6 8 11 6 19 -9 9 -17 13 -18 24 -6 11 12 10 14 -5 16 -10 1 20
5 67 8 47 3 85 7 86 8 0 1 24 -20 52 -47z m629 31 c-10 -10 -17 -21 -17 -24 0
-18 -135 -203 -148 -203 -43 -2 -232 66 -252 90 -8 9 4 17 47 30 32 10 69 22
83 28 84 33 268 95 284 96 18 1 18 0 3 -17z m-1051 -38 c10 -14 29 -37 41 -52
14 -16 18 -29 12 -33 -9 -5 13 -20 31 -20 10 0 39 -32 35 -38 -2 -4 6 -8 17
-8 12 -1 24 -6 27 -10 3 -4 26 -19 51 -32 25 -13 89 -48 143 -77 54 -30 104
-54 112 -54 7 0 24 -9 38 -20 14 -11 32 -17 41 -14 15 6 123 -22 139 -36 5 -4
-11 -21 -35 -37 -42 -28 -44 -28 -108 -17 -90 17 -240 70 -254 90 -7 9 -27 18
-46 20 -18 2 -41 11 -50 19 -9 8 -25 15 -35 15 -20 0 -85 37 -85 49 0 4 -15
13 -34 19 -19 7 -37 20 -40 28 -4 12 -2 15 9 10 8 -3 15 -2 15 3 0 9 -62 37
-101 45 -34 7 -110 83 -102 102 4 11 9 12 19 3 10 -8 14 -8 14 0 0 6 -5 11
-11 11 -6 0 -8 8 -5 18 4 10 -2 7 -14 -8 -17 -21 -21 -23 -30 -10 -17 27 -4
35 55 34 32 -1 51 2 44 7 -8 5 2 9 27 12 21 2 44 4 50 5 6 1 20 -10 30 -24z
m588 -112 c3 -5 36 -21 73 -36 37 -15 77 -32 88 -36 11 -5 43 -16 72 -25 l52
-16 -26 -40 c-14 -21 -30 -39 -34 -39 -39 0 -227 60 -321 103 -71 31 -80 40
-50 51 9 3 40 14 67 25 59 22 72 24 79 13z"/>
<path d="M2971 3904 c11 -13 27 -14 96 -9 79 7 84 6 103 -16 23 -29 26 -82 5
-99 -20 -16 -19 -79 0 -108 17 -23 14 -45 -16 -118 -11 -27 -9 -37 9 -76 30
-60 28 -74 -10 -82 -65 -13 -138 -97 -138 -159 0 -33 -9 -38 -36 -20 -20 12
-32 13 -67 5 -23 -6 -79 -12 -124 -13 -46 -2 -83 -7 -83 -11 0 -4 -10 -9 -22
-9 -17 -1 -19 -2 -5 -6 15 -4 22 -21 18 -45 0 -5 10 -8 23 -8 13 0 39 -6 57
-14 19 -8 50 -15 69 -17 19 -2 41 -7 47 -12 7 -5 19 -7 26 -4 8 3 20 1 27 -3
33 -21 84 36 54 61 -17 14 -18 35 -3 44 16 11 25 -5 9 -16 -11 -6 -12 -11 -3
-17 6 -4 13 -14 15 -21 4 -19 26 -48 61 -81 31 -30 31 -32 21 -142 -6 -68 -9
-78 -26 -78 -11 0 -51 -16 -89 -36 -77 -41 -151 -115 -169 -169 -7 -21 -16
-32 -22 -29 -6 4 -8 3 -5 -3 3 -5 0 -29 -7 -54 -18 -62 -19 -145 -2 -207 8
-29 48 -110 89 -180 143 -246 220 -452 263 -702 8 -52 19 -99 24 -104 17 -18
38 4 45 46 13 85 67 275 106 371 58 146 102 228 195 368 46 70 90 144 98 166
69 195 -26 417 -216 506 l-68 32 0 82 c0 78 2 84 30 113 59 61 81 139 60 214
-16 57 -66 119 -90 111 -21 -7 -67 12 -74 31 -3 8 -1 14 4 14 6 0 10 7 10 16
0 9 9 27 20 41 24 30 25 67 5 107 -19 36 -19 77 0 102 20 27 18 73 -5 112 -11
17 -16 32 -11 32 5 0 11 8 15 18 3 9 13 31 23 47 18 30 18 30 98 27 52 -2 75
0 66 7 -8 5 -59 10 -114 10 -85 1 -98 -1 -93 -14 3 -10 -1 -15 -13 -15 -10 0
-21 7 -25 15 -4 12 -29 15 -137 15 -118 0 -130 -2 -118 -16z m213 -591 c11
-11 40 -13 47 -2 20 33 100 -70 105 -134 3 -47 -6 -69 -17 -41 -7 17 -8 17 -8
2 -1 -15 -10 -18 -55 -18 -29 0 -68 3 -87 7 -28 5 -30 7 -14 14 11 4 38 8 60
9 74 3 86 19 15 19 -38 1 -76 -5 -92 -13 -27 -14 -27 -14 -34 20 -14 77 42
175 80 137z"/>
<path d="M5444 3908 c-5 -7 -2 -9 9 -5 11 4 14 2 11 -8 -6 -15 30 -30 47 -20
5 4 18 0 28 -9 13 -12 34 -16 84 -14 37 2 67 -1 67 -5 0 -5 10 -7 23 -6 12 2
28 0 35 -4 6 -5 12 -6 12 -4 0 3 16 1 35 -3 23 -5 36 -4 39 4 3 7 5 6 5 -2 1
-7 6 -10 11 -7 6 3 15 3 21 -1 16 -10 66 -14 180 -17 64 -1 102 -7 112 -16 20
-16 22 -37 5 -45 -10 -5 -10 -7 0 -12 18 -8 4 -24 -15 -17 -10 4 -14 2 -10 -4
8 -12 -72 -85 -134 -122 -42 -26 -194 -101 -202 -101 -5 0 -22 -9 -37 -20 -16
-11 -32 -20 -37 -19 -13 3 -73 -22 -73 -31 0 -4 -10 -11 -22 -14 l-23 -6 23
-19 c12 -11 28 -21 35 -24 8 -2 7 -8 -4 -20 -21 -21 -107 -34 -234 -36 -116
-2 -134 -6 -130 -29 1 -9 -2 -22 -7 -29 -10 -13 6 -53 22 -53 6 0 10 -7 10
-15 0 -17 51 -41 105 -49 50 -7 66 -11 85 -19 8 -3 27 -11 43 -17 30 -11 42
-31 33 -56 -5 -14 -9 -14 -22 -3 -12 10 -17 10 -23 0 -4 -7 -19 -10 -32 -8
-13 2 -18 2 -11 0 8 -3 11 -11 8 -19 -3 -8 1 -14 9 -14 8 0 15 -7 15 -15 0
-20 17 -19 29 3 9 15 12 15 21 2 6 -10 10 -11 10 -2 0 6 9 12 20 12 24 0 25 8
5 34 -8 11 -15 26 -15 33 0 20 20 16 20 -4 1 -17 1 -17 14 0 16 21 101 24 120
4 16 -15 -1 -36 -23 -29 -8 3 -11 0 -7 -7 4 -6 -3 -15 -19 -21 -35 -13 -35
-13 -28 8 4 13 3 14 -6 6 -21 -19 -2 -45 28 -37 14 3 29 10 32 16 4 5 12 6 18
3 6 -4 16 4 22 18 6 13 19 27 28 30 9 2 48 16 86 31 79 29 160 31 248 8 29 -7
63 -15 77 -17 14 -2 54 -11 90 -20 36 -9 71 -16 78 -16 9 0 12 27 12 103 l0
103 -68 0 c-38 0 -74 4 -80 8 -7 4 -12 3 -12 -1 0 -11 -55 -31 -95 -34 -29 -3
-125 37 -125 52 0 4 -3 14 -6 22 -11 29 44 27 284 -7 19 -3 30 -1 26 5 -3 6
10 7 35 3 28 -4 41 -3 41 5 0 6 -4 11 -9 11 -5 0 -22 5 -38 12 -15 6 -31 11
-34 10 -4 -1 -16 9 -28 22 l-22 24 28 27 c15 15 44 33 63 39 l35 11 3 238 2
237 -474 0 c-352 0 -477 -3 -482 -12z"/>
<path d="M1743 2793 c-27 -4 -33 -9 -33 -29 0 -14 7 -27 18 -31 9 -4 30 -17
45 -30 30 -24 53 -31 41 -11 -4 6 -3 8 3 5 5 -3 37 -8 71 -12 51 -4 62 -3 62
10 0 23 -4 30 -17 29 -7 -1 -10 2 -7 7 3 5 -1 9 -8 10 -33 2 -53 9 -64 23 -6
9 -14 13 -17 10 -3 -3 -16 1 -29 10 -12 9 -25 15 -28 14 -3 0 -20 -3 -37 -5z"/>
<path d="M6370 2232 c-13 -9 -21 -11 -16 -4 5 8 1 12 -10 12 -10 0 -14 -3 -11
-7 4 -3 2 -12 -4 -19 -8 -10 -4 -19 16 -38 15 -14 25 -31 22 -38 -4 -8 -6 -7
-6 5 -1 25 -21 21 -22 -5 0 -13 -3 -17 -6 -10 -2 6 -14 12 -25 12 -14 0 -19
-6 -16 -22 2 -13 5 -21 8 -19 3 2 16 -1 28 -8 18 -10 23 -19 19 -37 -3 -18 -1
-24 9 -20 9 3 14 -1 14 -13 0 -25 -11 -33 -27 -20 -10 9 -13 8 -13 -5 0 -9 7
-16 15 -16 8 0 15 -9 15 -20 0 -14 5 -18 18 -13 16 6 16 6 0 -10 -20 -20 -35
-22 -41 -4 -2 6 -3 4 -2 -5 2 -10 -1 -18 -6 -18 -5 0 -9 -4 -9 -10 0 -5 3 -9
8 -9 4 1 16 1 27 0 15 -1 17 -3 6 -10 -9 -6 -10 -10 -2 -12 6 -2 15 -29 20
-59 11 -66 1 -84 -41 -75 -22 5 -28 3 -28 -10 0 -9 -4 -13 -10 -10 -18 11 -32
-5 -19 -21 10 -12 9 -13 -5 -8 -10 4 -15 13 -12 20 3 7 1 16 -4 19 -6 4 -10 1
-10 -4 0 -6 -8 -11 -19 -11 -10 0 -21 -9 -24 -20 -3 -11 -2 -18 3 -15 4 3 13
-2 20 -11 10 -11 15 -12 20 -3 6 8 13 6 26 -7 19 -20 25 -47 11 -60 -4 -4 -7
-2 -7 5 0 8 -11 11 -27 9 -20 -2 -28 -8 -28 -23 1 -12 7 -19 15 -17 11 3 11 0
-1 -14 -13 -16 -12 -16 7 -6 21 11 34 7 34 -10 0 -4 -7 -8 -15 -8 -9 0 -12 -6
-9 -15 4 -8 1 -15 -4 -15 -16 0 -43 30 -37 41 4 5 -3 9 -14 9 -12 0 -21 -5
-21 -10 0 -6 -10 -15 -22 -20 l-23 -9 23 0 c12 -1 22 -5 22 -10 0 -10 -21 -8
-52 4 -19 7 -25 -9 -9 -20 5 -3 8 -18 6 -33 -2 -21 -8 -26 -23 -25 -16 2 -20
-1 -15 -14 4 -11 3 -14 -5 -9 -7 4 -12 1 -12 -9 0 -12 -5 -15 -16 -11 -38 15
-64 18 -64 7 0 -9 12 -14 73 -26 9 -2 17 3 17 10 0 18 30 27 46 14 11 -9 19
-8 34 6 18 16 20 16 20 2 0 -18 20 -10 76 30 17 12 44 24 60 27 16 2 29 5 29
6 0 9 41 6 47 -3 4 -7 8 10 8 37 0 45 -1 48 -22 42 -13 -3 -29 -6 -36 -6 -8 0
-10 -5 -6 -12 4 -8 3 -10 -2 -5 -5 5 -9 14 -9 20 0 7 -10 16 -22 22 -13 5 -23
13 -23 17 0 12 25 9 38 -4 9 -9 20 -2 47 27 l35 39 0 308 c-1 169 -2 308 -3
307 -1 0 -13 -8 -27 -17z"/>
<path d="M6380 1428 c0 -7 -27 -24 -60 -38 -53 -22 -60 -28 -60 -54 0 -23 -3
-27 -17 -21 -10 4 -29 9 -42 11 -14 3 -33 14 -43 26 -12 15 -18 17 -18 7 0 -8
-12 -22 -27 -31 -21 -13 -23 -18 -10 -18 9 0 17 -7 17 -15 0 -8 6 -15 12 -15
7 0 2 -7 -10 -16 -15 -10 -27 -12 -35 -6 -18 14 -57 21 -57 11 0 -9 14 -13 39
-10 7 2 10 -2 7 -7 -3 -6 18 -10 52 -10 63 -1 81 -4 99 -15 7 -4 17 0 23 10
10 16 11 16 7 -4 -6 -29 6 -29 25 -1 11 17 16 19 23 8 5 -9 4 -11 -3 -6 -7 4
-12 2 -12 -3 0 -6 6 -11 14 -11 8 0 17 -7 20 -16 10 -25 7 -27 -11 -13 -11 10
-14 10 -9 2 9 -15 1 -16 -42 -4 -20 6 -32 6 -32 0 0 -5 11 -9 24 -9 13 0 26
-6 29 -12 3 -10 8 -10 16 -2 18 17 59 5 81 -24 l20 -25 0 98 0 98 -37 -5 c-41
-5 -86 10 -90 30 -4 17 8 15 23 -5 12 -17 13 -17 27 1 12 17 14 17 20 2 4 -9
17 -16 32 -16 20 0 25 5 25 25 0 14 -7 28 -15 31 -8 4 -15 10 -15 15 0 4 7 6
15 3 11 -5 15 1 15 20 0 14 -4 26 -10 26 -5 0 -10 -6 -10 -12z"/>
<path d="M2915 1249 c-65 -15 -161 -69 -181 -103 -26 -43 -19 -76 24 -114 53
-48 59 -52 77 -52 8 0 15 -4 15 -10 0 -5 11 -10 24 -10 14 0 27 -4 31 -9 3 -6
13 -10 23 -9 9 0 42 -5 73 -11 49 -10 212 -17 274 -11 l20 1 -20 9 c-11 4 -32
5 -47 3 -16 -3 -35 0 -43 7 -9 7 -15 8 -15 2 0 -12 -26 -10 -37 3 -4 4 -2 5 5
1 6 -4 12 -2 12 4 0 6 4 9 8 6 12 -7 35 10 38 28 1 9 -2 14 -7 10 -5 -3 -9 2
-9 10 0 9 -4 16 -9 16 -5 0 -16 7 -24 15 -13 13 -17 12 -29 -2 -7 -10 -8 -14
-1 -10 6 4 18 1 26 -7 8 -8 16 -13 19 -11 2 2 10 -5 17 -16 12 -20 11 -21 -28
-15 -39 5 -41 4 -35 -18 5 -22 3 -24 -38 -23 -24 0 -48 4 -54 8 -6 5 -20 7
-32 4 -12 -2 -22 1 -22 7 0 5 6 8 14 5 8 -3 22 3 31 13 17 19 16 20 -10 30
-14 5 -30 8 -35 5 -5 -3 -11 -1 -15 5 -4 6 -10 8 -14 6 -4 -3 -13 0 -21 5 -11
7 -8 8 10 5 14 -3 25 -5 25 -6 0 -1 14 -3 30 -5 l30 -4 -25 14 c-16 9 -20 15
-10 16 69 7 66 9 50 -22 -9 -15 -7 -21 5 -25 14 -6 14 -8 -2 -20 -16 -13 -15
-13 10 -2 19 8 24 14 15 19 -8 5 -3 10 15 14 15 4 24 11 21 17 -3 5 -16 3 -30
-6 -34 -23 -37 -20 -18 13 15 25 20 27 35 18 15 -9 21 -8 33 8 11 15 17 17 28
7 11 -9 17 -9 28 1 10 10 12 9 7 -6 -4 -10 -3 -16 2 -12 6 3 9 14 8 25 -1 12
-5 16 -10 11 -9 -9 -13 -9 -50 3 -30 10 3 35 39 30 l29 -5 -30 14 c-16 8 -31
11 -33 6 -5 -12 -60 20 -82 49 -12 15 -19 22 -16 15 4 -7 -4 -13 -21 -16 l-28
-4 26 -2 c29 -1 54 -24 44 -41 -10 -16 -28 -12 -21 5 3 8 1 15 -4 15 -6 0 -10
-7 -10 -16 0 -12 -7 -15 -25 -12 -26 5 -35 -6 -12 -15 8 -4 7 -6 -3 -6 -9 -1
-24 5 -35 13 -11 7 -33 16 -50 21 -27 6 -28 8 -10 15 11 4 22 4 25 0 9 -13 48
-21 55 -11 3 7 0 8 -9 5 -9 -3 -16 -1 -16 5 0 6 10 11 23 12 21 0 21 1 2 9
-14 6 -15 9 -5 10 10 1 9 4 -5 9 -11 5 -37 6 -57 3 -39 -5 -48 4 -26 26 13 13
52 17 44 4 -3 -5 8 -6 25 -4 29 4 41 21 17 23 -7 1 -2 5 12 9 36 11 -3 11 -55
-1z"/>
<path d="M5676 824 c-6 -16 42 -33 80 -28 25 4 26 3 9 -6 -17 -9 -16 -10 9 -6
16 2 43 0 62 -5 27 -8 32 -13 28 -34 -3 -18 -1 -23 10 -19 8 3 17 1 21 -5 3
-6 -1 -11 -9 -11 -9 0 -16 -7 -16 -15 0 -11 8 -13 30 -8 29 5 44 -11 18 -20
-15 -4 63 -47 86 -47 8 0 17 -4 20 -8 9 -14 -45 -6 -111 17 -34 11 -69 21 -78
21 -22 0 -19 -21 4 -27 23 -6 29 -19 26 -53 -1 -14 -3 -33 -4 -42 -1 -21 -15
-23 -33 -4 -21 20 -58 30 -58 15 0 -7 -6 -4 -14 7 -8 10 -18 16 -22 11 -9 -8
24 -36 44 -37 8 0 11 -7 8 -18 -6 -19 28 -61 40 -49 3 3 -4 10 -15 17 -19 10
-20 12 -6 26 21 21 45 10 45 -20 0 -13 6 -26 12 -28 8 -3 4 -9 -10 -17 -12 -6
-22 -19 -22 -27 0 -8 4 -13 8 -10 4 2 19 -4 32 -14 22 -17 23 -19 7 -25 -19
-8 -24 -35 -6 -35 6 0 -3 -13 -21 -30 -32 -30 -50 -38 -50 -21 0 13 -46 22
-75 15 -28 -7 -32 -19 -11 -40 20 -20 25 -18 37 13 7 18 13 23 18 15 4 -6 30
-16 59 -22 28 -5 60 -15 70 -21 14 -9 24 -9 38 -1 10 6 13 12 7 12 -7 0 -13
11 -13 24 0 19 -4 23 -20 19 -11 -3 -20 0 -20 6 0 18 45 13 64 -8 9 -10 19
-32 20 -47 2 -16 4 -33 5 -37 0 -5 7 -7 14 -4 6 2 27 -5 45 -15 18 -10 40 -18
50 -18 10 0 28 -7 40 -16 23 -16 25 -49 6 -97 -4 -12 -1 -17 12 -17 18 -1 18
-1 1 -11 -11 -6 -32 -9 -47 -7 -16 2 -27 1 -24 -4 3 -4 77 -8 165 -8 l159 0 0
350 c0 297 -2 350 -14 350 -8 0 -21 6 -28 13 -17 16 -48 21 -48 7 0 -6 -4 -8
-10 -5 -12 7 -44 15 -85 20 -16 2 -32 5 -35 5 -3 1 -16 1 -29 0 -13 -1 -21 2
-18 7 3 4 -5 9 -16 9 -52 4 -72 9 -79 19 -5 6 -8 6 -8 -2 0 -7 -9 -13 -20 -13
-11 0 -20 5 -20 11 0 7 -11 8 -30 4 -21 -5 -30 -3 -30 6 0 7 -3 9 -7 6 -3 -4
-11 -3 -17 2 -21 16 -47 21 -41 8 4 -6 0 -4 -8 6 -11 13 -22 16 -41 11 -17 -4
-26 -2 -26 6 0 10 -3 10 -14 1 -11 -9 -15 -9 -18 0 -5 16 -76 19 -82 3z"/>
</g>
</svg>
